<?xml version="1.0" encoding="UTF-8"?>
<svg id="Layer_1" xmlns="http://www.w3.org/2000/svg" version="1.1" viewBox="0 0 750.08 622.99">
  <!-- Generator: Adobe Illustrator 29.8.2, SVG Export Plug-In . SVG Version: 2.1.1 Build 3)  -->
  <defs>
    <style>
      .st0 {
        fill: #e3c685;
      }
    </style>
  </defs>
  <g>
    <path class="st0" d="M350,543l.58-7.11c9.38-1.56,18.87-.74,27.63-5.18,18.91-9.57,11.86-29.3,6.81-45.23-8.77-27.61-21.66-55.82-31.77-83.23-6.4-17.35-11.82-35.08-18.75-52.23-16.25,18.17-28.55,39.55-37.97,62.01-24.15,57.56-31.17,122.88-8.3,182.23,3.22,8.36,9.14,16.59,12,24,.61,1.58.99,3.01.76,4.73l-10.79-15.69c-33.11-57.8-26.54-142.25-1.37-201.98,20.3-48.19,57.32-84.14,93.68-120.32l-4.55,29.45c-.96,35.2,4.96,70.72,19.18,102.9,5.26,11.9,12.64,22.74,17.87,34.64l7.5-24.98c7-15.85,17.5-30.28,31.79-40.21l12.69-5.8c-21.25-4.08-43.43-12.6-57.99-29l16.33,9.16c15.1,6.32,31.16,10.15,47.34,12.66,17.69,2.75,60.92,8.98,74.85-2.82,15.5-13.13-12.81-32.52,1.49-48.51,2.44-2.73,8.64-5.6,7.52-10.61-1.01-4.49-14.75-6.49-18.51-4.89v-1.98c3.77-1.62,19.87-10.63,20.8-13.73,2.17-7.26-8.55-14.27-10.75-20.85-5.76-17.17,28.42-22.7,27.96-31.84-.21-4.22-14.24-13.56-18.03-17.08-13.22-12.27-33.4-32.31-35.02-50.98-.61-6.98,1-13.61,1.08-19.99.23-19.37.07-38.57-4.05-57.54l-27.99,9.99,3.14-15.85,21.86-7.16-15.99-39.98c9.88,10.64,17.24,24.97,21,39.01,32.01-7.85,66.75-8.32,99-1.52,18.77,3.96,36.21,11.08,53.96,18.04,18.13,7.11,42.62,24.4,60.07,7,2.63-2.63,3.13-7.28,6.97-6.54v107c-8.06.71-6.77-6.68-8.74-12.76-17.29-53.58-63.77-93.19-119.24-102.76-28.91-4.99-59.53-2.9-88.03,3.53,4.09,17.5,7.09,36.52,7.05,54.54-.02,7.05-1.74,14.39-1.08,21.98,1.37,15.82,19.69,34.54,31.02,44.98,13.38,12.33,38.85,23.34,12.34,40.31-6.36,4.07-20.31,6.56-15.86,16.21,5.87,12.72,19.17,18.5,2.6,33.6,13.06,14.23-7.56,20.65-8.01,30.95-.37,8.55,10.4,16.26,7.49,31.46-6.74,35.13-70.34,16.41-94.22,26.78-53.99,23.43-57.74,142.32,12.67,148.18.43.93-.89,2.99-1.5,2.99h-128.5l-.02.02Z"/>
    <path class="st0" d="M749.9,443.11c1.35,1.96-5.32,13.96-6.73,16.57-45.35,83.9-151.5,110.72-239.17,84.83-33.21-9.81-74.39-28.72-72-70.02.07-1.12-.66-2.74.98-2.47.06,1.13.73,2.21,1.47,3.03,22.96,25.4,54.02,44.21,86.78,54.23,86.67,26.51,179.24-8.52,223.92-87.14l4.75.98h0Z"/>
  </g>
  <g>
    <path class="st0" d="M42,543l1.19-6.81c19.28-1.3,32.88-7.77,43.44-24.06,19.08-29.43,28.67-72.24,43.34-104.42l4.03-2.69c-35.4,9-74.61,10.59-109.25-2.26-8.45-3.13-18.27-7.5-24.75-13.74,84.95,36.43,169.59-3.34,241.92-47.59s137.66-94.82,185.9-161.1C463.89,130.77,497.96,61.1,471.01.01c21.97,26.68,25.97,60.83,20.7,94.21-13.73,86.98-111.53,191.01-183.19,237.81-48.3,31.55-103.03,51.67-157.58,69.68-8.28,24.43-20.63,49.03-28.2,73.54-5.08,16.43-11.58,40.44,4.77,52.76,9.58,7.22,21.24,6.18,32.39,8.11l.11,6.89H42Z"/>
    <path class="st0" d="M277.68,81.31l68.19,173.98c-4.79,5.2-9.73,10.36-14.86,15.22-4.34,4.12-11.85,11.27-16.5,14.5-.85.59-1,1.39-2.5.98l-57-145.99-95.14,237.37c-3.36,7.25-13.58,7.69-19.87,11.62l123.97-309.52c3.93-.85,10.8-1.4,13.7,1.83h0Z"/>
    <path class="st0" d="M466,102.01c-22.38,58.63-68.52,103.79-114.99,143.99,16.39-60.65,56.56-118.01,114.99-143.99Z"/>
  </g>
</svg>